<svg xmlns="http://www.w3.org/2000/svg" version="1.1" xmlns:xlink="http://www.w3.org/1999/xlink" width="1500" height="235" viewBox="0 0 1500 235"><svg xml:space="preserve" width="1500" height="235" data-version="2" data-id="lg_np71DkUMuOYUGkK4J5" viewBox="0 0 574 235" x="0" y="0"><rect width="100%" height="100%" fill="transparent"></rect><path fill="#fff" d="M293.725 106.948q-8 0-14.96-3.13-6.97-3.14-12.18-8.72-5.22-5.58-8.16-12.87-2.94-7.3-2.94-15.63 0-8.49 3.05-15.81 3.05-7.33 8.38-12.8 5.33-5.46 12.24-8.52 6.91-3.05 14.68-3.05 8.93 0 16.9 4.16 7.96 4.17 13.51 11.83l-6.94 3.77q-4.44-5.83-10.68-8.94-6.24-3.1-12.85-3.1-6.27 0-11.79 2.52-5.52 2.53-9.74 7.02-4.22 4.5-6.61 10.38-2.38 5.88-2.38 12.65 0 6.72 2.38 12.6 2.39 5.89 6.58 10.35 4.19 4.47 9.74 7 5.55 2.52 11.88 2.52 5.21 0 9.9-1.8 4.69-1.81 8.58-5.08 3.88-3.27 6.57-7.66 2.7-4.38 3.92-9.55h-20.98v-7.04h30.02q-.16 8.04-3.21 15.09-3.06 7.05-8.3 12.41-5.25 5.35-12.05 8.38-6.79 3.02-14.56 3.02m76.36 0q-6.21 0-12.01-1.94t-10.13-5.55q-4.33-3.61-6.11-8.6l7.27-2.72q1.23 3.44 4.47 5.91 3.25 2.47 7.61 3.8 4.35 1.33 8.9 1.33 5.33 0 9.94-1.77 4.6-1.78 7.44-4.97 2.83-3.19 2.83-7.52 0-4.39-2.95-7.22-2.94-2.83-7.57-4.46-4.64-1.64-9.69-2.53-7.93-1.39-14.23-3.77-6.3-2.39-9.96-6.75-3.67-4.35-3.67-11.51 0-6.72 3.89-11.66 3.88-4.94 10.24-7.66 6.35-2.72 13.73-2.72 6.05 0 11.83 1.89 5.77 1.89 10.18 5.49 4.41 3.61 6.35 8.83l-7.38 2.66q-1.22-3.49-4.47-5.96-3.24-2.47-7.57-3.78-4.33-1.3-8.94-1.3-5.27-.06-9.85 1.75-4.58 1.8-7.41 4.99-2.83 3.19-2.83 7.47 0 4.99 2.64 7.68 2.64 2.7 7.19 4.03 4.55 1.33 10.26 2.38 7.44 1.28 13.82 3.97 6.39 2.69 10.27 7.16 3.89 4.47 3.89 11.02 0 6.66-3.89 11.63-3.88 4.96-10.24 7.68-6.35 2.72-13.85 2.72m40.57-1.44v-55.5h7.77v55.5zm3.94-65.21q-1.88 0-3.19-1.25-1.3-1.25-1.3-3.14 0-1.89 1.3-3.13 1.31-1.25 3.19-1.25 1.84 0 3.14 1.25 1.3 1.24 1.3 3.13t-1.27 3.14q-1.28 1.25-3.17 1.25m24.92 65.21h-7.77v-83.25h7.77zm-174.04 99.09h-7.77v-77.7h24.86q6.22 0 11.21 3.02 5 3.03 7.97 8.16 2.96 5.14 2.96 11.52 0 6.44-3.02 11.6-3.02 5.16-8.05 8.16-5.02 2.99-11.07 2.99h-17.09zm0-70.76v30.74h16.48q4.11 0 7.52-2.02 3.41-2.03 5.44-5.5 2.02-3.47 2.02-7.85 0-4.38-2.02-7.85-2.03-3.47-5.44-5.5-3.41-2.02-7.52-2.02zm96.23 25.64-.27-10.38h7.77v55.5h-7.77l-.28-10.32q-2.72 5.27-7.61 8.51-4.88 3.25-11.65 3.25-6.11 0-11.43-2.3-5.33-2.3-9.38-6.36-4.05-4.05-6.33-9.38-2.28-5.32-2.28-11.43 0-5.99 2.25-11.27 2.25-5.27 6.22-9.26 3.97-4 9.21-6.25 5.25-2.25 11.24-2.25 6.94 0 12.1 3.31 5.16 3.3 8.21 8.63m-19.98 39.01q5.94 0 10.22-2.91 4.27-2.91 6.57-7.85 2.31-4.94 2.31-10.88 0-6.11-2.34-11.02-2.33-4.91-6.6-7.8-4.27-2.88-10.16-2.88-5.88 0-10.74 2.91-4.85 2.92-7.71 7.86-2.86 4.93-2.86 10.93 0 6.05 2.94 10.96 2.94 4.91 7.8 7.8 4.86 2.88 10.57 2.88m46.35-4.16v38.02h-7.77v-83.25h7.77v10.38q2.88-5.28 7.88-8.55 4.99-3.27 11.87-3.27 6.05 0 11.35 2.27 5.3 2.28 9.3 6.3 4 4.02 6.27 9.3 2.28 5.27 2.28 11.32 0 6.05-2.28 11.38-2.27 5.32-6.27 9.35-4 4.02-9.3 6.3-5.3 2.27-11.35 2.27-6.88 0-11.87-3.27-5-3.28-7.88-8.55m19.7-39.13q-5.83 0-10.13 2.92-4.3 2.91-6.63 7.8-2.33 4.88-2.33 10.93 0 5.94 2.3 10.88t6.6 7.88q4.31 2.94 10.19 2.94 5.77 0 10.63-2.89 4.85-2.88 7.79-7.79 2.95-4.92 2.95-11.02 0-5.94-2.89-10.85-2.89-4.91-7.71-7.85-4.83-2.95-10.77-2.95m63.66 50.84q-7.66 0-13.96-3.94-6.3-3.94-10.05-10.57-3.74-6.63-3.74-14.68 0-6.11 2.16-11.41 2.17-5.3 5.97-9.32 3.8-4.02 8.85-6.3 5.05-2.28 10.77-2.28 6.16 0 11.35 2.45 5.19 2.44 8.93 6.82 3.75 4.39 5.66 10.27 1.92 5.88 1.58 12.71h-47.06q.67 5.27 3.36 9.44 2.69 4.16 6.88 6.57 4.19 2.42 9.3 2.47 5.55 0 10.01-2.88 4.47-2.89 7.19-7.94l7.88 1.83q-3.33 7.38-10.04 12.07-6.72 4.69-15.04 4.69m-19.76-32.52h39.46q-.39-5.16-3.14-9.46-2.74-4.31-7.07-6.89t-9.49-2.58q-5.16 0-9.44 2.53-4.27 2.52-6.99 6.82-2.72 4.31-3.33 9.58m57.33 31.08v-55.5h7.77v55.5zm3.94-65.21q-1.89 0-3.19-1.25t-1.3-3.14q0-1.89 1.3-3.13 1.3-1.25 3.19-1.25 1.83 0 3.14 1.25 1.3 1.24 1.3 3.13t-1.28 3.14q-1.27 1.25-3.16 1.25m34.3 66.26q-4.55-.11-8.88-1.66-4.33-1.56-7.55-4.22-3.22-2.66-4.6-6.05l6.71-2.89q.89 2.17 3.3 3.97 2.42 1.81 5.53 2.89 3.1 1.08 6.16 1.08 3.38 0 6.32-1.11 2.94-1.11 4.8-3.19 1.86-2.08 1.86-4.91 0-3.05-2-4.8-1.99-1.75-5.05-2.78-3.05-1.02-6.27-1.97-5.88-1.61-10.38-3.55-4.49-1.94-7.02-4.97-2.52-3.02-2.52-7.79 0-5.06 2.86-8.75 2.85-3.69 7.49-5.71 4.63-2.03 9.91-2.03 6.77 0 12.34 2.94 5.58 2.94 8.08 7.83l-6.27 3.72q-1-2.28-3.17-3.94-2.16-1.67-4.91-2.61-2.74-.95-5.57-1-3.56-.06-6.61 1.03-3.05 1.08-4.91 3.19-1.86 2.11-1.86 5.16 0 3.05 1.83 4.63t4.97 2.56q3.13.97 7.07 2.24 5.06 1.61 9.5 3.67 4.44 2.05 7.15 5.1 2.72 3.06 2.67 7.72 0 4.99-3 8.71-3 3.72-7.77 5.69-4.77 1.97-10.21 1.8"></path><path fill="#e1c16c" fill-rule="evenodd" stroke="#e1c16c" d="m100.587 20.064.118-.059.059-.029.088-.088.058-.059q0-.059.06-.088v-.117l.029-.03v-.088l.029-.059v-.117l.03-.059v-.176l.029-.147.117-.088-.088-.059v.147l-1.674 1.263zm.647-1.234c1.145.412 1.498-.646 2.056-1.322l.147-.117.147-.147zm39.363 155.693c26.82-31.843 43.624-68.123 47.06-110.013a85.19 85.19 0 0 0-4.288-36.573c-1.41-3.878-2.585-8.02-6.052-10.752q-5.816-4.7-12.543-8.107a52.877 52.877 0 0 0-30.669-5.552c-10.458 1.292-19.535 5.698-27.907 11.838l-.117.088c-.294.206-.53.411-.294.852.44.294.734 0 1.087-.206 6.227-2.937 12.631-5.434 19.476-6.374 14.218-1.968 26.292 1.821 35.34 13.366 7.578 9.635 10.428 21.004 11.456 32.901 1.087 12.338.059 24.588-2.82 36.603-10.722 44.651-32.901 81.577-72.206 107.222q-.06-.088 0 .03c2.232.851 4.494 1.615 6.668 2.526 1.322.558 2.35.41 3.613-.294a126.317 126.317 0 0 0 32.167-27.525" vector-effect="non-scaling-stroke"></path><path fill="#e1c16c" fill-rule="evenodd" stroke="#e1c16c" d="M122.514 168.646c22.09-26.879 35.75-57.283 37.895-92.329.881-14.012-.822-27.701-8.02-40.127-6.756-11.633-16.803-18.243-30.55-18.742-8.285-.294-15.981 1.91-23.501 5.082-.059-2.115-1.028-.999-1.763-.47a138.067 138.067 0 0 0-29.61 28.289 185.069 185.069 0 0 0-31.58 60.72c-2.409 7.932-4.113 15.98-5.376 24.147-.206 1.41.118 1.821 1.586 1.85 5.817.089 5.817.148 6.64-5.58l.205-1.704a199.757 199.757 0 0 1 30.669-74.145A161.568 161.568 0 0 1 94.254 25.76c.94.705-.646 1.205-.293 1.85q0 .06.088.148h.529l1.175-.353c7.314-2.027 14.688-2.644 22.09-.734 12.926 3.32 20.71 12.19 25.352 24.206 5.493 14.188 5.464 28.847 3.172 43.594a146.88 146.88 0 0 1-22.472 57.577c-10.928 16.744-24.206 31.138-42.067 40.773-.235.147-.587.294-.41.705l.41.235c1.616.588 3.29 1.087 4.818 1.851 1.88.91 3.349.588 5.17-.44a114.566 114.566 0 0 0 30.698-26.527m40.187 9.312a246.758 246.758 0 0 0 50.056-95.677 16.45 16.45 0 0 0-.235-10.693 143.942 143.942 0 0 0-9.753-21.974 196.82 196.82 0 0 1-2.144 21.739 214.445 214.445 0 0 1-26.791 72.764c-11.251 19.33-24.852 36.75-42.184 51.114a126.317 126.317 0 0 1-16.01 11.104c2.879 1.087 5.405 1.969 7.873 3.026 1.498.676 2.673.44 4.054-.411a149.818 149.818 0 0 0 35.134-30.992" vector-effect="non-scaling-stroke"></path><path fill="#e1c16c" fill-rule="evenodd" stroke="#e1c16c" d="M108.564 144.504c-.324.587-.705 1.146-.823 1.762a76.378 76.378 0 0 1-7.285 22.356c.5-.089.822-.06.97-.177q2.056-2.262 4.024-4.641a138.067 138.067 0 0 0 29.581-65.626c2.057-12.837 1.88-25.645-2.262-38.13-5.67-17.214-18.947-28.935-38.688-27.32-4.935.412-6.698 1.645-8.548 6.757l.176.088 1.234.088c15.628.147 26.262 7.873 32.578 21.826 5.522 12.25 5.934 25.234 4.318 38.307a120.442 120.442 0 0 1-15.275 44.71" vector-effect="non-scaling-stroke"></path><path fill="#e1c16c" fill-rule="evenodd" stroke="#e1c16c" d="M90.32 80.345q.175-.412.205-.705a2.938 2.938 0 0 0-.265-1.175A38.189 38.189 0 0 0 79.861 64.07c-1.527-1.233-4.318-1.674-4.436-3.672-.117-1.82 1.47-3.73 2.145-5.64.411-1.204.881-1.38 2.086-.94q10.046 3.613 15.921 12.514c6.816 10.282 8.46 21.797 7.903 33.812-.06 1.351 0 2.585.47 3.819a82.253 82.253 0 0 1 4.406 19.27c1.028-.587.999-1.527 1.234-2.261a99.878 99.878 0 0 0 3.76-16.745c1.557-11.985 1.322-23.882-3.26-35.31-4.466-11.074-11.898-19.094-23.825-22.12-4.26-1.087-4.23-1.057-6.668 2.556A220.32 220.32 0 0 0 60.15 84.751a202.694 202.694 0 0 0-15.07 50.586c-.206 1.38 0 1.762 1.351 1.674a38.189 38.189 0 0 1 5.17 0c1.734.147 2.204-.646 2.439-2.203 1.645-10.105 4.26-19.976 7.256-29.729 2.467-8.049 6.345-15.598 7.872-23.97.735-4.113 2.086-8.05 3.055-12.103.441-1.792 1-2.174 2.762-1.175a58.752 58.752 0 0 1 15.334 12.514m129.46 22.913c-18.83 44.152-43.418 83.31-83.868 110.571 3.113 1.175 6.11 2.233 9.047 3.437 1.175.5 2.057.294 3.114-.411a158.63 158.63 0 0 0 22.62-18.066c20.563-19.682 36.661-42.625 50.203-67.506q.735-1.293.705-2.791a179.194 179.194 0 0 0-1.82-25.234m-62.19 118.62c3.613 1.352 6.845 2.439 9.988 3.79 1.586.675 2.703.323 4.024-.588 14.835-10.37 27.526-23.001 39.335-36.573.793-.91 1.175-1.968 1.527-3.055a170.38 170.38 0 0 0 6.346-24.147c.176-.94.5-1.968-.118-3.173-16.98 24.53-35.868 46.884-61.102 63.746M77.922 35.311a114.566 114.566 0 0 0-17.067 13.16 149.818 149.818 0 0 0-33.9 50.645q-7.197 17.332-9.694 35.897c-.059.676-.5 1.851.294 1.969q2.702.44 5.346 0c1.234-.235.881-1.763.999-2.732.91-7.168 2.497-14.189 4.524-21.092Q38.089 80.55 59.592 54.14q8.401-10.134 18.33-18.8" vector-effect="non-scaling-stroke"></path><path fill="#e1c16c" fill-rule="evenodd" stroke="#e1c16c" d="m54.66 52.32-.47-.529a29.376 29.376 0 0 0-7.55 5.435 127.786 127.786 0 0 0-40.127 75.35c-.705 4.817-.734 4.758 3.525 4.7 1.234-.06 1.763-.382 1.763-1.646q.118-2.115.529-4.142a138.067 138.067 0 0 1 35.427-72.265q3.378-3.525 6.904-6.932" vector-effect="non-scaling-stroke"></path></svg></svg>